<?xml version="1.0" standalone="no"?>
<!DOCTYPE svg PUBLIC "-//W3C//DTD SVG 20010904//EN"
 "http://www.w3.org/TR/2001/REC-SVG-20010904/DTD/svg10.dtd">
<svg version="1.0" xmlns="http://www.w3.org/2000/svg"
 width="700.000000pt" height="700.000000pt" viewBox="0 0 700.000000 700.000000"
 preserveAspectRatio="xMidYMid meet">
<metadata>
Created by potrace 1.14, written by Peter Selinger 2001-2017
</metadata>
<g transform="translate(0.000000,700.000000) scale(0.100000,-0.100000)"
fill="#000000" stroke="none">
<path d="M2977 6993 c-2 -5 -5 -37 -7 -73 -3 -72 -4 -109 -14 -315 -12 -246
-16 -299 -24 -306 -22 -19 -867 -347 -876 -340 -52 40 -505 409 -520 423 -24
22 -30 22 -48 5 -7 -8 -98 -103 -203 -212 -104 -109 -237 -247 -295 -307 -58
-61 -146 -153 -196 -206 l-91 -96 33 -45 c18 -25 41 -55 51 -66 25 -27 93
-113 118 -146 11 -15 64 -82 118 -148 l97 -120 -175 -439 c-97 -241 -181 -439
-188 -439 -24 0 -162 -14 -187 -18 -14 -2 -50 -7 -80 -9 -130 -12 -218 -21
-320 -32 -36 -4 -73 -6 -82 -6 -17 1 -18 -34 -18 -597 l0 -598 33 0 c17 0 93
-3 167 -7 199 -11 294 -16 399 -20 52 -3 97 -8 101 -13 6 -7 111 -267 251
-623 17 -41 34 -84 39 -95 5 -11 21 -49 35 -84 27 -69 28 -63 -26 -126 -15
-16 -77 -88 -139 -160 -62 -71 -126 -146 -144 -165 -18 -19 -52 -59 -76 -88
l-44 -53 41 -42 c23 -23 60 -62 83 -87 24 -25 129 -135 235 -245 106 -110 216
-225 244 -255 107 -113 222 -229 231 -235 6 -3 81 51 168 122 86 70 201 164
255 208 54 44 109 88 122 98 22 17 28 15 296 -104 151 -67 346 -153 434 -191
88 -39 161 -72 163 -73 1 -1 4 -46 7 -101 16 -293 28 -523 29 -547 0 -16 32
-17 561 -15 552 3 560 3 561 23 1 11 5 81 8 155 4 74 9 169 11 210 3 41 7 120
10 174 3 55 6 100 8 102 1 1 112 50 247 109 134 59 262 115 285 125 22 10 107
48 190 84 l149 66 61 -47 c33 -26 62 -50 65 -53 3 -4 77 -65 165 -135 88 -71
182 -148 210 -172 27 -24 53 -43 56 -43 7 0 128 122 245 245 44 47 340 356
517 539 42 44 77 83 77 86 0 5 -58 74 -155 185 -251 288 -295 340 -291 350
166 418 340 852 345 857 3 4 60 10 126 13 66 3 147 8 180 10 51 3 345 17 383
18 9 0 12 126 12 593 0 326 -3 595 -7 597 -5 3 -42 8 -83 12 -107 9 -148 13
-205 20 -27 3 -77 8 -110 10 -33 3 -76 7 -95 10 -19 2 -66 7 -105 10 -83 7
-105 13 -105 27 0 5 -67 177 -149 382 -82 204 -159 394 -170 423 l-20 52 56
73 c32 40 60 75 63 78 4 4 261 326 291 366 5 6 -22 42 -68 90 -42 43 -157 164
-257 268 -100 103 -212 220 -249 260 -164 171 -208 215 -217 221 -8 5 -225
-165 -439 -343 -24 -20 -63 -52 -86 -69 l-41 -33 -430 172 c-236 94 -432 174
-436 177 -4 3 -10 58 -13 121 -3 63 -8 140 -10 170 -3 44 -16 321 -19 393 0
16 -34 17 -558 17 -306 0 -559 -3 -561 -7z"/>
</g>
</svg>
